<svg width="40" height="32" viewBox="0 0 40 32" fill="none" xmlns="http://www.w3.org/2000/svg">
<path d="M10 31.3H0L1.42857 25.7L2.85714 24.7667H7.14286L7.85714 25.7L10 26.6333V31.3Z" fill="#FFCB74"/>
<path d="M29.9999 21.9667L20 31.3L17.1428 26.6333L17.8571 25.7L27.8571 16.3667L29.9999 21.9667Z" fill="#DA922A"/>
<path d="M11.4285 16.3667L1.42847 25.7H7.85704L17.8571 16.3667H11.4285Z" fill="#FBB540"/>
<path d="M31.4287 16.3667L21.4287 25.7L22.143 26.6333H27.143L27.8573 25.7L37.8573 16.3667H31.4287Z" fill="#FBB540"/>
<path d="M20.0001 21.9667L10 31.3L7.85718 25.7L17.8572 16.3667L20.0001 21.9667Z" fill="#DA922A"/>
<path d="M20 31.3H10L11.4286 25.7L12.8571 24.7667H17.1429L17.8571 25.7L20 31.3Z" fill="#FFCB74"/>
<path d="M40 21.9667L30 31.3L27.1428 26.6333L27.8571 25.7L37.8571 16.3667L40 21.9667Z" fill="#EA9D2D"/>
<path d="M21.4287 16.3667L11.4287 25.7H17.8573L27.8573 16.3667H21.4287Z" fill="#FBB540"/>
<path d="M30 31.3H20L21.4286 25.7H27.8571L30 31.3Z" fill="#FFCB74"/>
<path d="M35.7143 13.5667L25.7143 22.9L22.8572 18.2334L23.5715 17.3L33.5714 7.96667L35.7143 13.5667Z" fill="#EA9D2D"/>
<path d="M17.1428 7.96667L7.14282 17.3L8.5714 18.2334H12.8571L13.5714 17.3L23.5714 7.96667H17.1428Z" fill="#FBB540"/>
<path d="M25.7143 13.5667L15.7143 22.9L12.8572 18.2334L13.5715 17.3L23.5714 7.96667L25.7143 13.5667Z" fill="#DA922A"/>
<path d="M27.1428 7.96667L17.1428 17.3L17.8571 18.2334H22.8571L23.5714 17.3L33.5714 7.96667H27.1428Z" fill="#FBB540"/>
<path d="M21.4287 0.5L11.4287 9.83336L12.8573 10.7667H16.4287L17.8573 9.83336L27.8573 0.5H21.4287Z" fill="#FBB540"/>
<path d="M30 6.09999L20 15.4333L17.1428 10.7667L17.8571 9.83332L27.8571 0.5L30 6.09999Z" fill="#EA9D2D"/>
<path d="M25.7144 22.9H15.7144L17.1429 17.3H23.5715L25.7144 22.9Z" fill="#FFCB74"/>
<path d="M15.7144 22.9H5.71436L7.14293 17.3H13.5715L15.7144 22.9Z" fill="#FFCB74"/>
<path d="M20 15.4333H10L11.4286 9.83334H17.8571L20 15.4333Z" fill="#FFCB74"/>
</svg>
