<svg width="34" height="46" viewBox="0 0 34 46" fill="none" xmlns="http://www.w3.org/2000/svg">
<path d="M33.7082 16.4652C32.4115 14.7454 30.8081 13.5797 29.0616 13.0587C29.2761 12.8196 29.4842 12.5681 29.6847 12.3021C31.4917 9.90519 32.4867 6.71827 32.4867 3.32868C32.4867 2.59888 32.0408 2.00739 31.4906 2.00739C28.5488 2.00739 25.913 3.7784 24.1566 6.55827C23.7647 4.23879 22.8853 2.1089 21.5873 0.387096C21.4002 0.139011 21.1471 0 20.8827 0C20.6187 0 20.3652 0.139011 20.1785 0.387096C18.7865 2.23346 17.8768 4.54881 17.5321 7.06408C17.3821 6.83423 17.2252 6.60954 17.0607 6.39139C16.874 6.14365 16.6205 6.00429 16.3562 6.00429C16.0921 6.00429 15.8384 6.14365 15.6517 6.39173C14.2268 8.28214 13.3469 10.6254 13.0105 13.0752C12.8585 12.8426 12.6997 12.6159 12.5339 12.396C12.1448 11.8799 11.5142 11.8799 11.1254 12.396C7.63284 17.0284 7.41054 24.3805 10.4574 29.3598L0.291825 42.8445C-0.097275 43.3603 -0.097275 44.1971 0.291825 44.7129C0.486375 44.9709 0.741105 45.1 0.996096 45.1C1.25109 45.1 1.50582 44.9709 1.70037 44.7129L11.8657 31.2289C13.5648 33.0621 15.6693 34.0593 17.8898 34.0596H17.8908C20.4456 34.0596 22.8479 32.7397 24.6549 30.3428C24.8417 30.0951 24.9467 29.7586 24.9467 29.4083C24.9467 29.0577 24.8417 28.7215 24.6549 28.4741C24.491 28.2563 24.3219 28.0478 24.1483 27.8482C26.0445 27.3909 27.7898 26.1842 29.1817 24.3382C29.3685 24.0905 29.4733 23.7543 29.4733 23.404C29.4733 23.0534 29.3685 22.7176 29.1817 22.4698C29.0175 22.252 28.8486 22.0435 28.6751 21.8439C30.5651 21.388 32.3051 20.1878 33.6948 18.3515C33.7918 18.2279 33.8706 18.0769 33.9241 17.9052C34.0784 17.4114 33.9931 16.8433 33.7082 16.4652ZM30.4198 4.7501C30.1923 6.89479 29.451 8.87534 28.2759 10.4337C27.2523 11.7911 25.9875 12.7122 24.6095 13.1265C24.6077 13.1269 24.6062 13.1276 24.6043 13.1282C24.4023 13.1888 24.1976 13.2387 23.9911 13.2772C24.463 8.87121 27.0982 5.37634 30.4198 4.7501ZM20.8827 3.32972C21.8656 5.06012 22.3971 7.15595 22.3971 9.3605C22.3971 11.5647 21.8653 13.6609 20.8827 15.3909C19.9001 13.6612 19.3684 11.5651 19.3684 9.3605C19.3684 7.15629 19.9001 5.05978 20.8827 3.32972ZM16.3562 9.33573C18.3704 12.8939 18.3702 17.836 16.3559 21.3939C14.342 17.836 14.342 12.8939 16.3562 9.33573ZM11.8297 15.3386C12.8123 17.0687 13.3441 19.1649 13.3441 21.3691C13.3441 23.5736 12.8123 25.6698 11.8297 27.3999C10.8468 25.6698 10.3153 23.5736 10.3153 21.3694C10.3153 19.1649 10.8468 17.0687 11.8297 15.3386ZM17.8908 31.4171C17.8906 31.4171 17.8903 31.4171 17.89 31.4171C16.2281 31.4167 14.6478 30.7117 13.3438 29.4083C14.6481 28.1049 16.2283 27.3995 17.8903 27.3995C19.552 27.3995 21.1323 28.1046 22.4365 29.4083C21.1323 30.712 19.5523 31.4171 17.8908 31.4171ZM22.4166 25.4128C20.7548 25.4128 19.1746 24.7074 17.8703 23.404C19.1748 22.1006 20.7551 21.3952 22.4171 21.3952C24.0788 21.3952 25.6591 22.1003 26.9631 23.4037C25.6585 24.7074 24.0785 25.4128 22.4166 25.4128ZM26.9433 19.4085C25.2814 19.4085 23.7011 18.7031 22.3968 17.3994C23.2085 16.5884 24.1273 16.0093 25.1058 15.6872C25.1208 15.6824 25.1359 15.6779 25.1512 15.6731C25.7309 15.4873 26.3317 15.3909 26.9433 15.3909C28.6053 15.3909 30.1853 16.096 31.4896 17.3994C30.1853 18.7031 28.6051 19.4085 26.9433 19.4085Z" fill="#FFA825"/>
</svg>
