<svg width="47" height="61" viewBox="0 0 47 61" fill="none" xmlns="http://www.w3.org/2000/svg">
<path d="M33.8338 50.1494L41.7353 46.0442C43.4777 45.0764 45.6031 45.7859 46.5629 47.6547L30.5024 59.0828C28.3488 60.1758 25.9324 60.4766 23.6113 59.9408L12.5345 56.5209C11.5153 56.2065 10.4245 56.3376 9.49103 56.8875L7.1748 58.2509L7.48654 45.8236L7.57887 45.8261C10.8888 43.239 15.2359 42.9044 18.8412 44.9594L19.5043 45.3371C20.541 45.9276 21.6855 46.2531 22.8528 46.2879L29.3645 46.4857C31.4077 46.5472 33.1963 48.0131 33.8338 50.1494Z" fill="#FFA825"/>
<path d="M36.0016 28.3485C36.0016 35.7343 30.5584 41.7218 23.8441 41.7218C17.1298 41.7218 11.687 35.7343 11.687 28.3485C11.687 20.9627 17.1298 14.9752 23.8441 14.9752C30.5584 14.9752 36.0016 20.9627 36.0016 28.3485Z" fill="#FFA825"/>
<path d="M34.0723 52.9477H34.0477L23.3446 52.6232C22.8473 52.6082 22.4556 52.1526 22.4692 51.6061C22.4828 51.0591 22.897 50.6282 23.3938 50.6432L33.094 50.9372C33.0641 50.7757 33.0254 50.6165 32.9784 50.4598C32.4578 48.7216 31.0029 47.5285 29.3396 47.4762L22.8275 47.2779C21.5252 47.2373 20.2475 46.8741 19.0898 46.2163L18.4272 45.8391C15.123 43.9447 11.1321 44.2518 8.10006 46.6337C7.69467 46.9505 7.13233 46.8456 6.84434 46.3996C6.55635 45.9537 6.65176 45.3351 7.05714 45.0183C10.6383 42.2055 15.3526 41.8427 19.2551 44.0801L19.9182 44.4573C20.8345 44.9782 21.8457 45.265 22.8768 45.2979L29.3888 45.4957C30.9119 45.5407 32.3562 46.2497 33.4035 47.467C34.4509 48.6839 35.0154 50.3094 34.9723 51.9843C34.9591 52.5211 34.5599 52.9482 34.0719 52.9477H34.0723Z" fill="#AB6700"/>
<path d="M23.8441 12.1909C23.3468 12.1909 22.9436 11.7474 22.9436 11.2003V1.79051C22.9436 1.24351 23.3468 0.800003 23.8441 0.800003C24.3413 0.800003 24.7445 1.24351 24.7445 1.79051V11.2003C24.7445 11.7474 24.3413 12.1909 23.8441 12.1909Z" fill="#FFA825"/>
<path d="M30.5977 12.1909C30.1005 12.1909 29.6973 11.7474 29.6973 11.2003V6.74306C29.6973 6.19605 30.1005 5.75255 30.5977 5.75255C31.095 5.75255 31.4982 6.19605 31.4982 6.74306V11.2003C31.4982 11.7474 31.095 12.1909 30.5977 12.1909Z" fill="#FFA825"/>
<path d="M17.0906 12.1909C16.5934 12.1909 16.1902 11.7474 16.1902 11.2003V6.74306C16.1902 6.19605 16.5934 5.75255 17.0906 5.75255C17.5879 5.75255 17.9911 6.19605 17.9911 6.74306V11.2003C17.9911 11.7474 17.5879 12.1909 17.0906 12.1909Z" fill="#FFA825"/>
<path d="M7.17469 58.2509L7.13951 59.6496L0 59.4344L0.431325 42.1982L7.57172 42.4139L7.48642 45.8236L7.17469 58.2509Z" fill="#159800"/>
</svg>
